<?xml version="1.0" encoding="UTF-8"?><svg xmlns="http://www.w3.org/2000/svg" viewBox="0 0 550.59 597.09"><defs><style>.d{fill:#fff;}.e{fill:none;stroke:#fff;stroke-miterlimit:10;stroke-width:2px;}</style></defs><g id="a"/><g id="b"><g id="c"><g><path class="d" d="M161.3,349.79c-1.17-.91-2.4-1.86-3.69-2.88-.48-.37-.96-.76-1.46-1.15-.5-.4-1.01-.81-1.53-1.23-.15-.03-.29-.05-.43-.08-.59-.11-1.17-.24-1.75-.39h-.01c-.82-.21-1.64-.46-2.45-.74,.68,.57,1.34,1.11,1.98,1.64,.61,.49,1.21,.97,1.79,1.44,2.27,1.82,4.37,3.46,6.32,4.97,16.39,12.74,21.92,17.03,21.93,49-.36,2.92-.88,5.68-1.55,8.3-.16,.64-.34,1.28-.52,1.9-.18,.63-.37,1.25-.56,1.86,.16-.13,.31-.27,.45-.4,.06,.46,.13,.98,.22,1.56,.1,.61,.22,1.28,.35,1.99,.24-.64,.47-1.3,.69-1.97,.24-.71,.47-1.44,.69-2.19,.99-3.37,1.75-6.99,2.22-10.87v-.12c.01-33-6.17-37.8-22.69-50.64Zm147.15-122.22c-.01,1.2-.01,2.41,.01,3.63v.04c.04,3.38,.22,6.82,.54,10.28,.09,.94,.18,1.88,.28,2.83h0c3.47,32.38,14.52,69.96,18.76,84.36,4.61,15.68,20.64,36.78,23.69,40.72,.25,.33,.42,.54,.48,.62,.01,.01,.07,.08,.14,.21,.13,.19,.31,.52,.49,.99,.11-.14,.22-.27,.31-.39,.24,.2,.52,.44,.86,.71,.37,.31,.8,.67,1.29,1.08-.11-.63-.27-1.19-.43-1.66h-.01c-.47-1.4-1.03-2.12-1.08-2.18-.01-.01-.03-.04-.07-.09v-.02c-1.38-1.76-19.03-24.51-23.75-40.55-4.35-14.78-15.89-54.03-18.96-86.81-.41-4.32-.57-8.62-.54-12.81h0c-.01-.09-.01-.18,0-.26h0c-.01-.27,0-.54,0-.8,0-.3,.01-.59,.01-.89h0s0-.08,.01-.12c-.03,0-.05,0-.07,.01"/><g><path d="M310.41,226.47s.04-.01,.07-.01c.13-.02,.26-.03,.4-.03,.01,0,.02,0,.03-.01,.26-.06,.9-.21,1.87-.49-.64,.78-1.16,1.28-1.53,1.44h-.01c-.06,.02-.11,.03-.15,.04-.06,.01-.09,.02-.09,.02-.19,0-.38,.01-.54,.04-.16,.03-.31,.07-.44,.13-.22,.08-.41,.21-.57,.37-.58,.57-.86,1.61-.99,3.23v.04c-.3,3.66,.11,10.28-.46,21.19-1,19-21,27-47,49-25.3,21.41-78.08,47.56-104.85,44.33-.68-.08-1.34-.18-1.98-.3-.06-.01-.11-.02-.17-.03-.68-.13-1.36-.29-2.04-.47-25.06-6.58-45.3-44.45-57.96-78.53-10.13-27.28-15.49-75.23-19.31-103.14v-.02c-.19-1.37-.37-2.69-.55-3.95,0-.04,0-.08,.02-.12,.13-.61,.74-3.61,1.5-8.71,0-.02,0-.03,.01-.05,.4-2.72,.83-6.04,1.27-9.91,.47-1.84,1-3.76,1.59-5.76,1.9-6.52,4.41-13.77,7.68-21.12,14.05-31.56,35.7-50.65,62.62-55.21,12.67-2.14,24.31-3.21,34.89-3.21,18.72,0,34.13,3.35,46.04,10.02,15.35,8.6,20.82,20.63,23.15,25.77,1.16,2.55,2.99,6.05,5.1,10.11,6.85,13.14,17.21,33.01,17.99,46.24,.81,13.75,5.99,33.58,8.86,37.04l2.62-6.84v-.03c.1-.52,.21-1.05,.32-1.59,.16-.83,.35-1.67,.54-2.52,2.92-12.84,8.29-26.05,13.51-31.48,4.12-6.07,8.78-10.88,13.62-13.25,2.3-1.12,4.55-1.65,6.71-1.58,.42,.01,.84,.04,1.25,.11,.25,.38,.49,.77,.72,1.14,.26,.42,.52,.84,.78,1.25-.46-.15-.93-.27-1.4-.35-2.28-.41-4.68,0-7.18,1.22-3.56,1.74-7.01,4.87-10.22,8.9-.33,.42-.66,.86-.99,1.3h-.01s0,0,0,0c-.65,.89-1.3,1.8-1.94,2.76-6.26,9.41-11.2,21.9-13.41,32.82-.12,.57-.23,1.14-.33,1.71h0c-.17,.87-.31,1.73-.45,2.6-.44,2.76-1.17,5.9-3.03,6.29-.13,.04-.27,.05-.41,.05h-.1c-.09,0-.18-.02-.27-.04-.06,0-.12-.02-.18-.05-5.14-1.71-10.33-28.05-11-39.35-.75-12.81-10.99-32.44-17.76-45.44-2.13-4.08-3.97-7.61-5.15-10.21-2.45-5.38-7.53-16.57-22.31-24.85-18.24-10.21-45.02-12.43-79.61-6.57-33.13,5.6-51.52,32.46-61.11,54-6.28,14.1-9.72,27.84-11.48,36.59-.7,4.75-1.27,7.62-1.42,8.34,.64,4.56,1.34,9.87,2.08,15.49,3.76,28.52,8.91,67.58,17.7,91.24,9.5,25.59,28.92,68.36,55.04,77.24,.81,.28,1.63,.53,2.45,.73h.01c.58,.16,1.16,.29,1.75,.4,.14,.03,.28,.05,.43,.08,26.81,4.74,81.25-23.15,105.73-43.86,7.17-6.06,13.9-11.09,19.85-15.52,15.72-11.72,26.1-19.46,26.8-32.77,.33-6.31,.33-11.26,.33-14.88,0-5.12,0-8.36,1.12-9.93"/><path class="d" d="M325.58,128.79c-.27-.43-.54-.86-.82-1.3-.44-.12-.88-.21-1.33-.26-.41-.07-.83-.1-1.25-.11,.22,.35,.44,.7,.65,1.04,.24,.37,.47,.74,.7,1.11,.47,.08,.94,.2,1.4,.35,.53,.18,1.07,.41,1.59,.69-.31-.5-.62-1.01-.94-1.52Zm-14.67,97.63s-.02,.01-.03,.01c-.14,0-.27,.01-.4,.03-.03,0-.05,0-.07,.01-.36,.04-.68,.13-.95,.26-.41,.19-.74,.47-1.01,.84-1.12,1.57-1.12,4.81-1.12,9.93,0,3.62,0,8.57-.33,14.88-.7,13.31-11.08,21.05-26.8,32.77-5.95,4.43-12.68,9.46-19.85,15.52-24.48,20.71-78.92,48.6-105.73,43.86-.15-.03-.29-.05-.43-.08-.59-.11-1.17-.24-1.75-.39h-.01c-.82-.21-1.64-.46-2.45-.74-26.12-8.88-45.54-51.65-55.04-77.24-8.79-23.66-13.94-62.72-17.7-91.24-.74-5.62-1.44-10.93-2.08-15.49,.15-.72,.72-3.59,1.42-8.34,.42-2.82,.89-6.29,1.35-10.37h0c.2-1.85,.41-3.79,.6-5.87-.59,2-1.12,3.92-1.59,5.76-.98,3.79-1.74,7.21-2.32,10.1,0,.02-.01,.05-.01,.07-.56,3.69-1.02,6.22-1.27,7.48h0c-.11,.59-.17,.9-.18,.92l-.03,.18,.02,.18c.16,1.14,.33,2.33,.5,3.56v.02c.51,3.71,1.05,7.8,1.61,12.06,3.77,28.61,8.94,67.81,17.8,91.68,10.14,27.31,31.51,73.96,60.69,79.62,.02,0,.04,.01,.06,.01,.64,.12,1.29,.23,1.96,.31,.6,.08,1.21,.14,1.84,.19,1.11,.09,2.25,.13,3.43,.13,28.92,0,77.75-25.5,100.61-44.85,7.11-6.02,13.82-11.02,19.74-15.43,15.59-11.63,26.86-20.03,27.61-34.28,.15-3.02,.24-5.72,.28-8.12h0c.05-2.67,.05-4.95,.05-6.86,0-2.8,.02-4.77,.13-6.15,.14-1.81,.42-2.58,1-2.82h0c.16-.07,.34-.1,.54-.1,.15,0,.34,0,.6-.11,.38-.15,.91-.54,1.73-1.49,.31-.37,.67-.82,1.07-1.38-.61,.19-1.15,.35-1.62,.48-.97,.28-1.61,.43-1.87,.49Z"/></g><g><path d="M337,96.43c-7-20-9-56-42-66C225.24,9.29,179-11.57,124,10.43S39,89.43,54,115.43c11.95,20.72,17.56,36.99,19.34,42.75h0c.45,1.47,.66,2.25,.66,2.25,0,0,.04-.38,.14-1.11,0-.04,0-.08,.02-.12,.21-1.58,.68-4.63,1.5-8.71,0-.02,0-.03,.01-.05,.57-2.82,1.31-6.14,2.26-9.8h0c7.05-27.17,25.6-73.52,71.07-81.21,81.71-13.83,98,21,103,32s22,39,23,56c.73,12.36,5.68,34.22,9.48,37.95,.3,.3,.59,.48,.88,.53,.56,.11,1.09-.28,1.55-1.28l.03-.08,.27-.68,.03-.08c.28-.84,.54-1.95,.76-3.36,.14-.87,.29-1.75,.45-2.62,.06-.35,.13-.71,.2-1.06,.11-.56,.23-1.12,.34-1.67,.13-.59,.26-1.18,.4-1.78,.15-.64,.3-1.28,.46-1.91,.12-.51,.25-1.02,.38-1.52,.03-.09,.05-.17,.07-.25,.14-.53,.29-1.06,.44-1.59,.48-1.73,1-3.44,1.56-5.1,.17-.53,.35-1.05,.53-1.57,.27-.75,.53-1.5,.81-2.23,.32-.87,.65-1.71,.99-2.54,.2-.5,.41-.99,.62-1.48,.2-.48,.41-.96,.63-1.43,.4-.88,.8-1.73,1.2-2.54,.13-.27,.26-.54,.4-.8,.17-.34,.35-.68,.53-1.01,.45-.84,.91-1.64,1.37-2.38,.13-.21,.26-.42,.39-.63,.93-1.45,1.86-2.68,2.76-3.63,.01,0,.01-.01,.01-.01,.89-.94,1.76-1.61,2.58-1.98,0,0,0,0,0,0h.01c.33-.44,.66-.88,.99-1.3,3.21-4.03,6.66-7.16,10.22-8.9,2.5-1.22,4.9-1.63,7.18-1.22,.47,.08,.94,.2,1.4,.35,.53,.18,1.07,.41,1.59,.69h.01c4.37,2.31,8.16,5.4,11.3,8.93,.31,.33,.61,.67,.9,1.02,.05-.43,.1-.86,.16-1.31,.05-.44,.1-.88,.15-1.34,1.33-11.99,2.13-29.25-2.04-41.18Zm1.12,40.2c-3.04-3.17-6.61-5.94-10.65-8.08-.89-.47-1.79-.82-2.71-1.06-.44-.12-.88-.21-1.33-.26-.41-.07-.83-.1-1.25-.11-2.16-.07-4.41,.46-6.71,1.58-4.84,2.37-9.5,7.18-13.62,13.25-5.22,5.43-10.59,18.64-13.51,31.48-.19,.85-.38,1.69-.54,2.52-.11,.54-.22,1.07-.31,1.59v.03l-2.63,6.84c-2.87-3.46-8.05-23.29-8.86-37.04-.78-13.23-11.14-33.1-17.99-46.24-2.11-4.06-3.94-7.56-5.1-10.11-2.33-5.14-7.8-17.17-23.15-25.77-11.91-6.67-27.32-10.02-46.04-10.02-10.58,0-22.22,1.07-34.89,3.21-26.92,4.56-48.57,23.65-62.62,55.21-3.27,7.35-5.78,14.6-7.68,21.12-.59,2-1.12,3.92-1.59,5.76-.98,3.79-1.74,7.21-2.32,10.1,0,.02-.01,.05-.01,.07-.4,2.02-.72,3.77-.96,5.21-2.33-7.08-8.01-22.31-18.78-40.98-4.89-8.47-4.96-20.72-.19-34.49,7.65-22.07,30.49-53.4,69.69-69.08,47.19-18.88,87.42-6.13,143.11,11.53,8.72,2.76,17.74,5.62,27.23,8.5,26.02,7.88,32.4,32.37,37.53,52.06,1.25,4.81,2.44,9.37,3.82,13.31,3.99,11.41,3.32,28,2.06,39.87Z"/><path class="d" d="M301.85,141.95c-5.22,5.43-10.59,18.64-13.51,31.48-.19,.85-.38,1.69-.54,2.52-.11,.54-.22,1.07-.31,1.59v.03c-.18,.91-.34,1.81-.48,2.7-.23,1.43-.47,2.43-.69,3.12l2.13-5.58c.06-.35,.13-.71,.2-1.06,.11-.56,.23-1.12,.34-1.67,.13-.59,.26-1.18,.4-1.78,.15-.64,.3-1.28,.46-1.91,.12-.51,.25-1.02,.38-1.52,.03-.09,.05-.17,.07-.25,.14-.53,.29-1.06,.44-1.59,.48-1.73,1-3.44,1.56-5.1,.17-.53,.35-1.05,.53-1.57,.27-.75,.53-1.5,.81-2.23,.32-.87,.65-1.71,.99-2.54,.2-.5,.41-.99,.62-1.48,.2-.48,.41-.96,.63-1.43,.39-.88,.79-1.73,1.2-2.54,.13-.27,.26-.54,.4-.8,.17-.34,.35-.68,.53-1.01,.45-.84,.91-1.64,1.37-2.38,.13-.21,.26-.42,.39-.63,.93-1.45,1.86-2.68,2.76-3.63,.01,0,.01-.01,.01-.01,.66-.97,1.33-1.91,2.01-2.81-.89,.42-1.79,1.13-2.7,2.08Zm36.09-45.85c-1.35-3.87-2.52-8.38-3.77-13.16-5.25-20.16-11.79-45.26-38.88-53.47-9.48-2.87-18.49-5.73-27.21-8.49C212,3.2,171.49-9.64,123.63,9.5c-39.83,15.93-63.05,47.82-70.84,70.29-4.96,14.32-4.84,27.16,.34,36.14,14.75,25.57,19.85,44.57,19.9,44.75l.62,2.34v.02l.75,2.83,.29-2.58v-.02l.3-2.73c.01-.09,.43-3.71,1.59-9.53,1.76-8.75,5.2-22.49,11.48-36.59,9.59-21.54,27.98-48.4,61.11-54,34.59-5.86,61.37-3.64,79.61,6.57,14.78,8.28,19.86,19.47,22.31,24.85,1.18,2.6,3.02,6.13,5.15,10.21,6.77,13,17.01,32.63,17.76,45.44,.67,11.3,5.86,37.64,11,39.35,.06,.03,.12,.04,.18,.05,.09,.02,.18,.04,.27,.04h.1c.14,0,.28-.01,.41-.05,1.86-.39,2.59-3.53,3.03-6.29,.14-.87,.28-1.73,.45-2.59h0c.1-.58,.21-1.15,.33-1.72,2.94-14.59,8.82-27.85,13.41-32.82,.64-.96,1.29-1.87,1.94-2.76,0,0,0,0,0,0h.01c.33-.44,.66-.88,.99-1.3-.1,.02-.19,.03-.29,.05-.42,.07-.85,.21-1.29,.43-.89,.42-1.79,1.13-2.7,2.08-5.22,5.43-10.59,18.64-13.51,31.48-.19,.85-.38,1.69-.54,2.52-.11,.54-.22,1.07-.31,1.59v.03c-.18,.91-.34,1.81-.48,2.7-.23,1.43-.47,2.43-.69,3.12v.03c-.11,.3-.2,.54-.29,.74l-.05,.11c-.25,.54-.43,.65-.43,.66-.21-.04-.44-.21-.69-.52-2.87-3.46-8.05-23.29-8.86-37.04-.78-13.23-11.14-33.1-17.99-46.24-2.11-4.06-3.94-7.56-5.1-10.11-2.33-5.14-7.8-17.17-23.15-25.77-11.91-6.67-27.32-10.02-46.04-10.02-10.58,0-22.22,1.07-34.89,3.21-26.92,4.56-48.57,23.65-62.62,55.21-3.27,7.35-5.78,14.6-7.68,21.12-.59,2-1.12,3.92-1.59,5.76-.98,3.79-1.74,7.21-2.32,10.1,0,.02-.01,.05-.01,.07-.4,2.02-.72,3.77-.96,5.21-2.33-7.08-8.01-22.31-18.78-40.98-4.89-8.47-4.96-20.72-.19-34.49,7.65-22.07,30.49-53.4,69.69-69.08,47.19-18.88,87.42-6.13,143.11,11.53,8.72,2.76,17.74,5.62,27.23,8.5,26.02,7.88,32.4,32.37,37.53,52.06,1.25,4.81,2.44,9.37,3.82,13.31,3.99,11.41,3.32,28,2.06,39.87-.04,.44-.09,.88-.14,1.31-.05,.44-.1,.88-.15,1.3,.31,.33,.61,.67,.9,1.02,.3,.36,.6,.72,.89,1.09,.05-.44,.11-.9,.17-1.36,.05-.44,.11-.89,.16-1.35,1.41-12.09,2.36-30.04-2.01-42.54Zm-36.09,45.85c-5.22,5.43-10.59,18.64-13.51,31.48-.19,.85-.38,1.69-.54,2.52-.11,.54-.22,1.07-.31,1.59v.03c-.18,.91-.34,1.81-.48,2.7-.23,1.43-.47,2.43-.69,3.12l2.13-5.58c.06-.35,.13-.71,.2-1.06,.11-.56,.23-1.12,.34-1.67,.13-.59,.26-1.18,.4-1.78,.15-.64,.3-1.28,.46-1.91,.12-.51,.25-1.02,.38-1.52,.03-.09,.05-.17,.07-.25,.14-.53,.29-1.06,.44-1.59,.48-1.73,1-3.44,1.56-5.1,.17-.53,.35-1.05,.53-1.57,.27-.75,.53-1.5,.81-2.23,.32-.87,.65-1.71,.99-2.54,.2-.5,.41-.99,.62-1.48,.2-.48,.41-.96,.63-1.43,.39-.88,.79-1.73,1.2-2.54,.13-.27,.26-.54,.4-.8,.17-.34,.35-.68,.53-1.01,.45-.84,.91-1.64,1.37-2.38,.13-.21,.26-.42,.39-.63,.93-1.45,1.86-2.68,2.76-3.63,.01,0,.01-.01,.01-.01,.66-.97,1.33-1.91,2.01-2.81-.89,.42-1.79,1.13-2.7,2.08Z"/></g><g><path d="M350,168.43c-1,13,1,36-12,46-9.79,7.53-20.15,11.09-24.67,12.4-1.01,.28-1.73,.46-2.08,.54h-.01c-.06,.02-.11,.03-.15,.04-.06,.01-.09,.02-.09,.02l-.53-.85h0l-.06-.11s.04-.01,.07-.01c.13-.02,.26-.03,.4-.03,.01,0,.02,0,.03-.01,.26-.06,.9-.21,1.87-.49,.47-.13,1.01-.29,1.62-.48,4.95-1.55,14.24-5.09,22.99-11.81,10.32-7.94,10.84-24.34,11.26-37.52,.09-2.8,.17-5.44,.35-7.77,.63-8.13-2.69-18.54-9.38-27-.29-.37-.59-.73-.89-1.09-.29-.35-.59-.69-.9-1.02-3.14-3.53-6.93-6.62-11.3-8.93h-.01c-.52-.28-1.06-.51-1.59-.69-.46-.15-.93-.27-1.4-.35-2.28-.41-4.68,0-7.18,1.22-3.56,1.74-7.01,4.87-10.22,8.9-.33,.42-.66,.86-.99,1.3h-.01s0,0,0,0c-.65,.89-1.3,1.8-1.94,2.76-6.26,9.41-11.2,21.9-13.41,32.82-.12,.57-.23,1.14-.33,1.71h0c-.17,.87-.31,1.73-.45,2.6-.44,2.76-1.17,5.9-3.03,6.29l-.08-.13-.52-.84,.62-1.64,.05-.11,.28-.74v-.03l2.14-5.58c.06-.35,.13-.71,.2-1.06,.11-.56,.23-1.12,.34-1.67,.13-.59,.26-1.18,.4-1.78,2.55-10.74,7.35-22.01,13.14-30.61,.01,0,.01-.01,.01-.01,.66-.97,1.33-1.91,2.01-2.81,5.66-7.49,12.1-12.28,18.28-11.71,.44,.04,.88,.11,1.32,.21,.48,.1,.95,.24,1.43,.42,.47,.18,.95,.39,1.42,.64,4.18,2.21,7.86,5.14,10.98,8.51,.32,.33,.62,.67,.91,1.01,.31,.34,.61,.69,.9,1.04,7.18,8.71,10.88,19.68,10.21,28.44Z"/><path class="d" d="M351,168.51c-.18,2.28-.26,4.9-.35,7.67-.41,12.88-.97,30.53-12.04,39.04-11.98,9.22-24.6,12.53-27.01,13.1-.21,.05-.34,.08-.39,.09-.07,.01-.14,.02-.21,.02-.19,0-.38-.06-.54-.16h0c-.22-.14-.38-.36-.44-.63v-.04c-.07-.41,.11-.81,.45-1.02,.09-.06,.2-.11,.32-.13,.01,0,.04,0,.09-.02,.01,0,.02,0,.03-.01,.26-.06,.9-.21,1.87-.49,.47-.13,1.01-.29,1.62-.48,4.95-1.55,14.24-5.09,22.99-11.81,10.32-7.94,10.84-24.34,11.26-37.52,.09-2.8,.17-5.44,.35-7.77,.63-8.13-2.69-18.54-9.38-27-.29-.37-.59-.73-.89-1.09-.29-.35-.59-.69-.9-1.02-3.14-3.53-6.93-6.62-11.3-8.93h-.01c-.52-.28-1.06-.51-1.59-.69-.46-.15-.93-.27-1.4-.35-2.28-.41-4.68,0-7.18,1.22-3.56,1.74-7.01,4.87-10.22,8.9-.33,.42-.66,.86-.99,1.3h-.01s0,0,0,0c-.65,.89-1.3,1.8-1.94,2.76-6.26,9.41-11.2,21.9-13.41,32.82-.12,.57-.23,1.14-.33,1.71h0l-.05,.18-2.15,5.62-.03,.08-.27,.68-.03,.08-.62,1.63c-.08,.22-.23,.39-.41,.49-.21,.14-.45,.19-.7,.14-.06,0-.12-.02-.18-.05-.51-.2-.77-.78-.58-1.29l.06-.17,.38-.97,2.62-6.84v-.03c.1-.52,.21-1.05,.32-1.59,.16-.83,.35-1.67,.54-2.52,2.51-10.66,7.4-22.46,13.51-31.48,4.12-6.07,8.78-10.88,13.62-13.25,2.3-1.12,4.55-1.65,6.71-1.58,.42,.01,.84,.04,1.25,.11,.45,.05,.89,.14,1.33,.26,.92,.24,1.82,.59,2.71,1.06,4.04,2.14,7.61,4.91,10.65,8.08,.32,.32,.63,.65,.92,.98,.32,.34,.62,.68,.91,1.03,7.83,9.13,11.75,20.83,11.05,29.87Z"/></g><g><path d="M530,589.43l-1-.07c2.87-40.11-38.37-127.48-76.46-147.04-32.12-16.49-84.34-59.01-97.24-69.67-.49-.41-.92-.77-1.29-1.08-.34-.27-.62-.51-.86-.71-.09,.12-.2,.25-.31,.39-3.79,4.66-18.69,21.95-44.29,39.01-30.84,20.57-88.67,31.17-106.55,31.17-14.71,0-19.89-16.8-21.61-25.85-.13-.71-.25-1.38-.35-1.99-.09-.58-.16-1.1-.22-1.56-.14,.13-.29,.27-.45,.4h0c-3.54,3.22-11.78,10.21-22.86,16.86-14.88,8.93-93.76,43.58-97.11,45.06-43.15,22.06-53.2,56.4-57.39,116.08H1c4-57,13-94,58-117,0,0,82-36,97-45,12.69-7.62,21.52-15.59,23.93-17.86,.44-.41,.67-.64,.67-.64,0,0,.04,.52,.16,1.44,.07,.59,.18,1.35,.32,2.24,1.34,8.11,6.04,26.82,20.92,26.82,19,0,76-11,106-31,26.41-17.6,41.19-35.21,44.35-39.17,.43-.54,.65-.83,.65-.83l.02,.02c.11,.09,.75,.62,1.84,1.53h.01c10.69,8.89,64.9,53.38,98.13,70.45,37,19,80,106,77,148Z"/><path class="d" d="M531,589.5l-2-.14c2.87-40.11-38.37-127.48-76.46-147.04-32.12-16.49-84.34-59.01-97.24-69.67-.49-.41-.92-.77-1.29-1.08-.34-.27-.62-.51-.86-.71-.09,.12-.2,.25-.31,.39-3.79,4.66-18.69,21.95-44.29,39.01-30.84,20.57-88.67,31.17-106.55,31.17-14.71,0-19.89-16.8-21.61-25.85-.13-.71-.25-1.38-.35-1.99-.09-.58-.16-1.1-.22-1.56-.14,.13-.29,.27-.45,.4h0c-3.54,3.22-11.78,10.21-22.86,16.86-14.88,8.93-93.76,43.58-97.11,45.06-43.15,22.06-53.2,56.4-57.39,116.08-.01,.02-.01,.05-.01,.07l-2-.14c4.25-60.47,14.46-95.29,58.54-117.82,.88-.39,82.17-36.1,96.95-44.97,14.71-8.82,24.31-18.26,24.4-18.35l.56-.55,.97-.96,.07,.91,.1,1.23s.05,.61,.18,1.57c.81,6.11,4.79,28.01,20.23,28.01,17.7,0,74.93-10.49,105.45-30.83,26.63-17.75,41.53-35.71,44.28-39.17,.3-.38,.45-.58,.47-.6l.16-.22,.47-.63,.81,.68s.03,.02,.06,.04v.02c2.44,2.04,63.83,53.37,99.76,71.82,17.25,8.86,37.41,33.46,53.93,65.81,15.99,31.31,25.03,63.17,23.61,83.15Z"/></g><g><path class="e" d="M304.04,302.88h118.11v29.53h-82.37v24.87h69.93v27.97h-69.93v54.39h-35.74v-136.76Z"/><path class="e" d="M470.33,302.88v107.23h79.26v29.53h-115v-136.76h35.74Z"/><path class="e" d="M224.01,561.9c5.18,3.63,12.89,5.44,23.12,5.44,9.06,0,16.15-1.39,21.27-4.18,5.11-2.78,7.67-6.51,7.67-11.17,0-6.22-4.76-10.65-14.28-13.31-9.52-2.65-21.34-3.98-35.45-3.98v-23.31c12.43,0,23.18-1.36,32.25-4.08,9.06-2.72,13.6-7.12,13.6-13.21,0-3.88-2.27-6.9-6.8-9.03-4.53-2.14-10.43-3.21-17.68-3.21-8.81,0-15.61,1.52-20.4,4.57-4.79,3.04-7.19,6.96-7.19,11.75h-33.61c0-8.55,2.46-16.22,7.38-23.02,4.92-6.8,11.95-12.17,21.08-16.12,9.13-3.95,19.72-5.93,31.76-5.93,12.69,0,23.54,1.59,32.54,4.76,9,3.17,15.8,7.58,20.4,13.21,4.59,5.63,6.9,12.08,6.9,19.33,0,6.35-2.14,12.14-6.41,17.39-4.27,5.25-10.17,8.77-17.68,10.59-1.55,.39-2.66,.81-3.3,1.26-.65,.46-.97,1.33-.97,2.62,0,1.17,.39,1.98,1.17,2.43,.78,.46,1.88,.81,3.3,1.07,9.19,1.94,16.09,5.6,20.69,10.98,4.6,5.38,6.9,11.5,6.9,18.36,0,7.25-2.23,13.99-6.7,20.2-4.47,6.22-11.4,11.24-20.79,15.06-9.39,3.82-21.14,5.73-35.26,5.73-20.85,0-36.85-4.27-47.98-12.82-11.14-8.55-16.71-20.33-16.71-35.36h33.41c0,5.7,2.59,10.36,7.77,13.99Z"/><path class="e" d="M431.29,462.34c10.23,6.15,18,14.6,23.31,25.35,5.31,10.75,7.96,23.05,7.96,36.91s-2.66,26.16-7.96,36.91c-5.31,10.75-13.08,19.2-23.31,25.35-10.23,6.15-22.6,9.23-37.1,9.23s-26.88-3.08-37.1-9.23c-10.23-6.15-18-14.6-23.31-25.35-5.31-10.75-7.96-23.05-7.96-36.91s2.65-26.16,7.96-36.91c5.31-10.75,13.08-19.2,23.31-25.35,10.23-6.15,22.6-9.23,37.1-9.23s26.87,3.08,37.1,9.23Zm-11.56,94.02c5.76-7.83,8.64-18.42,8.64-31.76s-2.88-23.92-8.64-31.76c-5.76-7.83-14.28-11.75-25.55-11.75s-19.78,3.92-25.55,11.75c-5.76,7.84-8.64,18.42-8.64,31.76s2.88,23.93,8.64,31.76c5.76,7.84,14.28,11.75,25.55,11.75s19.78-3.92,25.55-11.75Z"/><path class="e" d="M534.05,456.23v136.76h-34.19v-87.81h-31.08v-23.31c10.23,0,17.61-.74,22.15-2.23,4.53-1.49,7.54-3.79,9.03-6.9,1.49-3.11,3.01-8.61,4.57-16.51h29.53Z"/></g></g></g></g></svg>