<?xml version="1.0" encoding="utf-8"?>
<!-- Generator: Adobe Illustrator 27.5.0, SVG Export Plug-In . SVG Version: 6.00 Build 0)  -->
<svg version="1.1" id="Layer_1" xmlns="http://www.w3.org/2000/svg" xmlns:xlink="http://www.w3.org/1999/xlink" x="0px" y="0px"
	 viewBox="0 0 550.6 597.1" style="enable-background:new 0 0 550.6 597.1;" xml:space="preserve">
<style type="text/css">
	.st0{fill:#FFFFFF;}
</style>
<g id="a">
</g>
<g id="b">
	<g id="c">
		<g>
			<path class="st0" d="M161.3,349.8c-1.2-0.9-2.4-1.9-3.7-2.9c-0.5-0.4-1-0.8-1.5-1.1c-0.5-0.4-1-0.8-1.5-1.2c-0.1,0-0.3,0-0.4-0.1
				c-0.6-0.1-1.2-0.2-1.8-0.4h0c-0.8-0.2-1.6-0.5-2.4-0.7c0.7,0.6,1.3,1.1,2,1.6c0.6,0.5,1.2,1,1.8,1.4c2.3,1.8,4.4,3.5,6.3,5
				c16.4,12.7,21.9,17,21.9,49c-0.4,2.9-0.9,5.7-1.6,8.3c-0.2,0.6-0.3,1.3-0.5,1.9c-0.2,0.6-0.4,1.2-0.6,1.9
				c0.2-0.1,0.3-0.3,0.4-0.4c0.1,0.5,0.1,1,0.2,1.6c0.1,0.6,0.2,1.3,0.4,2c0.2-0.6,0.5-1.3,0.7-2c0.2-0.7,0.5-1.4,0.7-2.2
				c1-3.4,1.8-7,2.2-10.9v-0.1C184,367.4,177.8,362.6,161.3,349.8L161.3,349.8z M308.5,227.6c0,1.2,0,2.4,0,3.6v0
				c0,3.4,0.2,6.8,0.5,10.3c0.1,0.9,0.2,1.9,0.3,2.8l0,0c3.5,32.4,14.5,70,18.8,84.4c4.6,15.7,20.6,36.8,23.7,40.7
				c0.2,0.3,0.4,0.5,0.5,0.6c0,0,0.1,0.1,0.1,0.2c0.1,0.2,0.3,0.5,0.5,1c0.1-0.1,0.2-0.3,0.3-0.4c0.2,0.2,0.5,0.4,0.9,0.7
				c0.4,0.3,0.8,0.7,1.3,1.1c-0.1-0.6-0.3-1.2-0.4-1.7h0c-0.5-1.4-1-2.1-1.1-2.2c0,0,0,0-0.1-0.1v0c-1.4-1.8-19-24.5-23.8-40.5
				c-4.4-14.8-15.9-54-19-86.8c-0.4-4.3-0.6-8.6-0.5-12.8l0,0c0-0.1,0-0.2,0-0.3l0,0c0-0.3,0-0.5,0-0.8c0-0.3,0-0.6,0-0.9l0,0
				c0,0,0-0.1,0-0.1c0,0,0,0-0.1,0"/>
			<g>
				<path d="M310.4,226.5C310.4,226.5,310.5,226.5,310.4,226.5c0.2,0,0.3,0,0.5,0c0,0,0,0,0,0c0.3-0.1,0.9-0.2,1.9-0.5
					c-0.6,0.8-1.2,1.3-1.5,1.4h0c-0.1,0-0.1,0-0.1,0c-0.1,0-0.1,0-0.1,0c-0.2,0-0.4,0-0.5,0s-0.3,0.1-0.4,0.1
					c-0.2,0.1-0.4,0.2-0.6,0.4c-0.6,0.6-0.9,1.6-1,3.2v0c-0.3,3.7,0.1,10.3-0.5,21.2c-1,19-21,27-47,49
					c-25.3,21.4-78.1,47.6-104.9,44.3c-0.7-0.1-1.3-0.2-2-0.3c-0.1,0-0.1,0-0.2,0c-0.7-0.1-1.4-0.3-2-0.5
					c-25.1-6.6-45.3-44.5-58-78.5c-10.1-27.3-15.5-75.2-19.3-103.1v0c-0.2-1.4-0.4-2.7-0.6-3.9c0,0,0-0.1,0-0.1
					c0.1-0.6,0.7-3.6,1.5-8.7c0,0,0,0,0-0.1c0.4-2.7,0.8-6,1.3-9.9c0.5-1.8,1-3.8,1.6-5.8c1.9-6.5,4.4-13.8,7.7-21.1
					c14.1-31.6,35.7-50.7,62.6-55.2c12.7-2.1,24.3-3.2,34.9-3.2c18.7,0,34.1,3.3,46,10c15.4,8.6,20.8,20.6,23.1,25.8
					c1.2,2.6,3,6.1,5.1,10.1c6.9,13.1,17.2,33,18,46.2c0.8,13.8,6,33.6,8.9,37l2.6-6.8v0c0.1-0.5,0.2-1.1,0.3-1.6
					c0.2-0.8,0.4-1.7,0.5-2.5c2.9-12.8,8.3-26.1,13.5-31.5c4.1-6.1,8.8-10.9,13.6-13.2c2.3-1.1,4.5-1.7,6.7-1.6c0.4,0,0.8,0,1.2,0.1
					c0.2,0.4,0.5,0.8,0.7,1.1c0.3,0.4,0.5,0.8,0.8,1.2c-0.5-0.1-0.9-0.3-1.4-0.4c-2.3-0.4-4.7,0-7.2,1.2c-3.6,1.7-7,4.9-10.2,8.9
					c-0.3,0.4-0.7,0.9-1,1.3h0l0,0c-0.6,0.9-1.3,1.8-1.9,2.8c-6.3,9.4-11.2,21.9-13.4,32.8c-0.1,0.6-0.2,1.1-0.3,1.7l0,0
					c-0.2,0.9-0.3,1.7-0.5,2.6c-0.4,2.8-1.2,5.9-3,6.3c-0.1,0-0.3,0.1-0.4,0.1h-0.1c-0.1,0-0.2,0-0.3,0c-0.1,0-0.1,0-0.2-0.1
					c-5.1-1.7-10.3-28.1-11-39.3c-0.8-12.8-11-32.4-17.8-45.4c-2.1-4.1-4-7.6-5.1-10.2c-2.4-5.4-7.5-16.6-22.3-24.8
					c-18.2-10.2-45-12.4-79.6-6.6c-33.1,5.6-51.5,32.5-61.1,54c-6.3,14.1-9.7,27.8-11.5,36.6c-0.7,4.8-1.3,7.6-1.4,8.3
					c0.6,4.6,1.3,9.9,2.1,15.5c3.8,28.5,8.9,67.6,17.7,91.2c9.5,25.6,28.9,68.4,55,77.2c0.8,0.3,1.6,0.5,2.4,0.7h0
					c0.6,0.2,1.2,0.3,1.8,0.4c0.1,0,0.3,0,0.4,0.1c26.8,4.7,81.2-23.1,105.7-43.9c7.2-6.1,13.9-11.1,19.9-15.5
					c15.7-11.7,26.1-19.5,26.8-32.8c0.3-6.3,0.3-11.3,0.3-14.9c0-5.1,0-8.4,1.1-9.9"/>
				<path class="st0" d="M325.6,128.8c-0.3-0.4-0.5-0.9-0.8-1.3c-0.4-0.1-0.9-0.2-1.3-0.3c-0.4-0.1-0.8-0.1-1.2-0.1
					c0.2,0.3,0.4,0.7,0.6,1c0.2,0.4,0.5,0.7,0.7,1.1c0.5,0.1,0.9,0.2,1.4,0.4c0.5,0.2,1.1,0.4,1.6,0.7
					C326.2,129.8,325.9,129.3,325.6,128.8z M310.9,226.4C310.9,226.4,310.9,226.4,310.9,226.4c-0.2,0-0.3,0-0.4,0c0,0,0,0-0.1,0
					c-0.4,0-0.7,0.1-1,0.3c-0.4,0.2-0.7,0.5-1,0.8c-1.1,1.6-1.1,4.8-1.1,9.9c0,3.6,0,8.6-0.3,14.9c-0.7,13.3-11.1,21-26.8,32.8
					c-6,4.4-12.7,9.5-19.9,15.5c-24.5,20.7-78.9,48.6-105.7,43.9c-0.1,0-0.3,0-0.4-0.1c-0.6-0.1-1.2-0.2-1.8-0.4h0
					c-0.8-0.2-1.6-0.5-2.4-0.7c-26.1-8.9-45.5-51.6-55-77.2c-8.8-23.7-13.9-62.7-17.7-91.2c-0.7-5.6-1.4-10.9-2.1-15.5
					c0.2-0.7,0.7-3.6,1.4-8.3c0.4-2.8,0.9-6.3,1.3-10.4l0,0c0.2-1.9,0.4-3.8,0.6-5.9c-0.6,2-1.1,3.9-1.6,5.8
					c-1,3.8-1.7,7.2-2.3,10.1c0,0,0,0.1,0,0.1c-0.6,3.7-1,6.2-1.3,7.5l0,0c-0.1,0.6-0.2,0.9-0.2,0.9l0,0.2l0,0.2
					c0.2,1.1,0.3,2.3,0.5,3.6v0c0.5,3.7,1.1,7.8,1.6,12.1c3.8,28.6,8.9,67.8,17.8,91.7c10.1,27.3,31.5,74,60.7,79.6c0,0,0,0,0.1,0
					c0.6,0.1,1.3,0.2,2,0.3c0.6,0.1,1.2,0.1,1.8,0.2c1.1,0.1,2.2,0.1,3.4,0.1c28.9,0,77.8-25.5,100.6-44.9c7.1-6,13.8-11,19.7-15.4
					c15.6-11.6,26.9-20,27.6-34.3c0.1-3,0.2-5.7,0.3-8.1l0,0c0-2.7,0-4.9,0-6.9c0-2.8,0-4.8,0.1-6.1c0.1-1.8,0.4-2.6,1-2.8l0,0
					c0.2-0.1,0.3-0.1,0.5-0.1c0.1,0,0.3,0,0.6-0.1c0.4-0.1,0.9-0.5,1.7-1.5c0.3-0.4,0.7-0.8,1.1-1.4c-0.6,0.2-1.1,0.4-1.6,0.5
					C311.8,226.2,311.2,226.4,310.9,226.4L310.9,226.4z"/>
			</g>
			<g>
				<path d="M337,96.4c-7-20-9-56-42-66c-69.8-21.1-116-42-171-20s-85,79-70,105c11.9,20.7,17.6,37,19.3,42.7l0,0
					c0.4,1.5,0.7,2.2,0.7,2.2s0-0.4,0.1-1.1c0,0,0-0.1,0-0.1c0.2-1.6,0.7-4.6,1.5-8.7c0,0,0,0,0-0.1c0.6-2.8,1.3-6.1,2.3-9.8l0,0
					c7.1-27.2,25.6-73.5,71.1-81.2c81.7-13.8,98,21,103,32s22,39,23,56c0.7,12.4,5.7,34.2,9.5,37.9c0.3,0.3,0.6,0.5,0.9,0.5
					c0.6,0.1,1.1-0.3,1.5-1.3l0-0.1l0.3-0.7l0-0.1c0.3-0.8,0.5-1.9,0.8-3.4c0.1-0.9,0.3-1.8,0.5-2.6c0.1-0.4,0.1-0.7,0.2-1.1
					c0.1-0.6,0.2-1.1,0.3-1.7c0.1-0.6,0.3-1.2,0.4-1.8c0.1-0.6,0.3-1.3,0.5-1.9c0.1-0.5,0.2-1,0.4-1.5c0-0.1,0-0.2,0.1-0.2
					c0.1-0.5,0.3-1.1,0.4-1.6c0.5-1.7,1-3.4,1.6-5.1c0.2-0.5,0.4-1.1,0.5-1.6c0.3-0.8,0.5-1.5,0.8-2.2c0.3-0.9,0.6-1.7,1-2.5
					c0.2-0.5,0.4-1,0.6-1.5c0.2-0.5,0.4-1,0.6-1.4c0.4-0.9,0.8-1.7,1.2-2.5c0.1-0.3,0.3-0.5,0.4-0.8c0.2-0.3,0.4-0.7,0.5-1
					c0.5-0.8,0.9-1.6,1.4-2.4c0.1-0.2,0.3-0.4,0.4-0.6c0.9-1.4,1.9-2.7,2.8-3.6c0,0,0,0,0,0c0.9-0.9,1.8-1.6,2.6-2l0,0h0
					c0.3-0.4,0.7-0.9,1-1.3c3.2-4,6.7-7.2,10.2-8.9c2.5-1.2,4.9-1.6,7.2-1.2c0.5,0.1,0.9,0.2,1.4,0.4c0.5,0.2,1.1,0.4,1.6,0.7h0
					c4.4,2.3,8.2,5.4,11.3,8.9c0.3,0.3,0.6,0.7,0.9,1c0-0.4,0.1-0.9,0.2-1.3c0-0.4,0.1-0.9,0.1-1.3
					C340.4,125.6,341.2,108.4,337,96.4L337,96.4z M338.1,136.6c-3-3.2-6.6-5.9-10.6-8.1c-0.9-0.5-1.8-0.8-2.7-1.1
					c-0.4-0.1-0.9-0.2-1.3-0.3c-0.4-0.1-0.8-0.1-1.2-0.1c-2.2-0.1-4.4,0.5-6.7,1.6c-4.8,2.4-9.5,7.2-13.6,13.2
					c-5.2,5.4-10.6,18.6-13.5,31.5c-0.2,0.9-0.4,1.7-0.5,2.5c-0.1,0.5-0.2,1.1-0.3,1.6v0l-2.6,6.8c-2.9-3.5-8-23.3-8.9-37
					c-0.8-13.2-11.1-33.1-18-46.2c-2.1-4.1-3.9-7.6-5.1-10.1c-2.3-5.1-7.8-17.2-23.1-25.8c-11.9-6.7-27.3-10-46-10
					c-10.6,0-22.2,1.1-34.9,3.2c-26.9,4.6-48.6,23.6-62.6,55.2c-3.3,7.3-5.8,14.6-7.7,21.1c-0.6,2-1.1,3.9-1.6,5.8
					c-1,3.8-1.7,7.2-2.3,10.1c0,0,0,0.1,0,0.1c-0.4,2-0.7,3.8-1,5.2c-2.3-7.1-8-22.3-18.8-41c-4.9-8.5-5-20.7-0.2-34.5
					c7.7-22.1,30.5-53.4,69.7-69.1c47.2-18.9,87.4-6.1,143.1,11.5c8.7,2.8,17.7,5.6,27.2,8.5c26,7.9,32.4,32.4,37.5,52.1
					c1.2,4.8,2.4,9.4,3.8,13.3C340.1,108.2,339.4,124.8,338.1,136.6L338.1,136.6z"/>
				<path class="st0" d="M301.9,141.9c-5.2,5.4-10.6,18.6-13.5,31.5c-0.2,0.9-0.4,1.7-0.5,2.5c-0.1,0.5-0.2,1.1-0.3,1.6v0
					c-0.2,0.9-0.3,1.8-0.5,2.7c-0.2,1.4-0.5,2.4-0.7,3.1l2.1-5.6c0.1-0.4,0.1-0.7,0.2-1.1c0.1-0.6,0.2-1.1,0.3-1.7
					c0.1-0.6,0.3-1.2,0.4-1.8c0.1-0.6,0.3-1.3,0.5-1.9c0.1-0.5,0.2-1,0.4-1.5c0-0.1,0-0.2,0.1-0.2c0.1-0.5,0.3-1.1,0.4-1.6
					c0.5-1.7,1-3.4,1.6-5.1c0.2-0.5,0.4-1.1,0.5-1.6c0.3-0.8,0.5-1.5,0.8-2.2c0.3-0.9,0.6-1.7,1-2.5c0.2-0.5,0.4-1,0.6-1.5
					c0.2-0.5,0.4-1,0.6-1.4c0.4-0.9,0.8-1.7,1.2-2.5c0.1-0.3,0.3-0.5,0.4-0.8c0.2-0.3,0.4-0.7,0.5-1c0.5-0.8,0.9-1.6,1.4-2.4
					c0.1-0.2,0.3-0.4,0.4-0.6c0.9-1.4,1.9-2.7,2.8-3.6c0,0,0,0,0,0c0.7-1,1.3-1.9,2-2.8C303.7,140.3,302.8,141,301.9,141.9z
					 M337.9,96.1c-1.4-3.9-2.5-8.4-3.8-13.2c-5.2-20.2-11.8-45.3-38.9-53.5c-9.5-2.9-18.5-5.7-27.2-8.5C212,3.2,171.5-9.6,123.6,9.5
					c-39.8,15.9-63,47.8-70.8,70.3c-5,14.3-4.8,27.2,0.3,36.1C67.9,141.5,73,160.5,73,160.7l0.6,2.3v0l0.8,2.8l0.3-2.6v0l0.3-2.7
					c0-0.1,0.4-3.7,1.6-9.5c1.8-8.8,5.2-22.5,11.5-36.6c9.6-21.5,28-48.4,61.1-54c34.6-5.9,61.4-3.6,79.6,6.6
					c14.8,8.3,19.9,19.5,22.3,24.8c1.2,2.6,3,6.1,5.1,10.2c6.8,13,17,32.6,17.8,45.4c0.7,11.3,5.9,37.6,11,39.4c0.1,0,0.1,0,0.2,0.1
					c0.1,0,0.2,0,0.3,0h0.1c0.1,0,0.3,0,0.4-0.1c1.9-0.4,2.6-3.5,3-6.3c0.1-0.9,0.3-1.7,0.5-2.6l0,0c0.1-0.6,0.2-1.1,0.3-1.7
					c2.9-14.6,8.8-27.9,13.4-32.8c0.6-1,1.3-1.9,1.9-2.8l0,0h0c0.3-0.4,0.7-0.9,1-1.3c-0.1,0-0.2,0-0.3,0.1
					c-0.4,0.1-0.9,0.2-1.3,0.4c-0.9,0.4-1.8,1.1-2.7,2.1c-5.2,5.4-10.6,18.6-13.5,31.5c-0.2,0.9-0.4,1.7-0.5,2.5
					c-0.1,0.5-0.2,1.1-0.3,1.6v0c-0.2,0.9-0.3,1.8-0.5,2.7c-0.2,1.4-0.5,2.4-0.7,3.1v0c-0.1,0.3-0.2,0.5-0.3,0.7l0,0.1
					c-0.2,0.5-0.4,0.6-0.4,0.7c-0.2,0-0.4-0.2-0.7-0.5c-2.9-3.5-8-23.3-8.9-37c-0.8-13.2-11.1-33.1-18-46.2
					c-2.1-4.1-3.9-7.6-5.1-10.1c-2.3-5.1-7.8-17.2-23.1-25.8c-11.9-6.7-27.3-10-46-10c-10.6,0-22.2,1.1-34.9,3.2
					c-26.9,4.6-48.6,23.6-62.6,55.2c-3.3,7.3-5.8,14.6-7.7,21.1c-0.6,2-1.1,3.9-1.6,5.8c-1,3.8-1.7,7.2-2.3,10.1c0,0,0,0.1,0,0.1
					c-0.4,2-0.7,3.8-1,5.2c-2.3-7.1-8-22.3-18.8-41c-4.9-8.5-5-20.7-0.2-34.5c7.7-22.1,30.5-53.4,69.7-69.1
					c47.2-18.9,87.4-6.1,143.1,11.5c8.7,2.8,17.7,5.6,27.2,8.5c26,7.9,32.4,32.4,37.5,52.1c1.2,4.8,2.4,9.4,3.8,13.3
					c4,11.4,3.3,28,2.1,39.9c0,0.4-0.1,0.9-0.1,1.3c0,0.4-0.1,0.9-0.1,1.3c0.3,0.3,0.6,0.7,0.9,1c0.3,0.4,0.6,0.7,0.9,1.1
					c0-0.4,0.1-0.9,0.2-1.4c0-0.4,0.1-0.9,0.2-1.4C341.4,126.6,342.3,108.6,337.9,96.1L337.9,96.1z M301.9,141.9
					c-5.2,5.4-10.6,18.6-13.5,31.5c-0.2,0.9-0.4,1.7-0.5,2.5c-0.1,0.5-0.2,1.1-0.3,1.6v0c-0.2,0.9-0.3,1.8-0.5,2.7
					c-0.2,1.4-0.5,2.4-0.7,3.1l2.1-5.6c0.1-0.4,0.1-0.7,0.2-1.1c0.1-0.6,0.2-1.1,0.3-1.7c0.1-0.6,0.3-1.2,0.4-1.8
					c0.1-0.6,0.3-1.3,0.5-1.9c0.1-0.5,0.2-1,0.4-1.5c0-0.1,0-0.2,0.1-0.2c0.1-0.5,0.3-1.1,0.4-1.6c0.5-1.7,1-3.4,1.6-5.1
					c0.2-0.5,0.4-1.1,0.5-1.6c0.3-0.8,0.5-1.5,0.8-2.2c0.3-0.9,0.6-1.7,1-2.5c0.2-0.5,0.4-1,0.6-1.5c0.2-0.5,0.4-1,0.6-1.4
					c0.4-0.9,0.8-1.7,1.2-2.5c0.1-0.3,0.3-0.5,0.4-0.8c0.2-0.3,0.4-0.7,0.5-1c0.5-0.8,0.9-1.6,1.4-2.4c0.1-0.2,0.3-0.4,0.4-0.6
					c0.9-1.4,1.9-2.7,2.8-3.6c0,0,0,0,0,0c0.7-1,1.3-1.9,2-2.8C303.7,140.3,302.8,141,301.9,141.9z"/>
			</g>
			<g>
				<path d="M350,168.4c-1,13,1,36-12,46c-9.8,7.5-20.1,11.1-24.7,12.4c-1,0.3-1.7,0.5-2.1,0.5h0c-0.1,0-0.1,0-0.1,0
					c-0.1,0-0.1,0-0.1,0l-0.5-0.9l0,0l-0.1-0.1c0,0,0,0,0.1,0c0.1,0,0.3,0,0.4,0c0,0,0,0,0,0c0.3-0.1,0.9-0.2,1.9-0.5
					c0.5-0.1,1-0.3,1.6-0.5c5-1.6,14.2-5.1,23-11.8c10.3-7.9,10.8-24.3,11.3-37.5c0.1-2.8,0.2-5.4,0.4-7.8c0.6-8.1-2.7-18.5-9.4-27
					c-0.3-0.4-0.6-0.7-0.9-1.1c-0.3-0.4-0.6-0.7-0.9-1c-3.1-3.5-6.9-6.6-11.3-8.9h0c-0.5-0.3-1.1-0.5-1.6-0.7
					c-0.5-0.1-0.9-0.3-1.4-0.4c-2.3-0.4-4.7,0-7.2,1.2c-3.6,1.7-7,4.9-10.2,8.9c-0.3,0.4-0.7,0.9-1,1.3h0l0,0
					c-0.6,0.9-1.3,1.8-1.9,2.8c-6.3,9.4-11.2,21.9-13.4,32.8c-0.1,0.6-0.2,1.1-0.3,1.7l0,0c-0.2,0.9-0.3,1.7-0.5,2.6
					c-0.4,2.8-1.2,5.9-3,6.3l-0.1-0.1l-0.5-0.8l0.6-1.6l0-0.1l0.3-0.7v0l2.1-5.6c0.1-0.4,0.1-0.7,0.2-1.1c0.1-0.6,0.2-1.1,0.3-1.7
					c0.1-0.6,0.3-1.2,0.4-1.8c2.5-10.7,7.4-22,13.1-30.6c0,0,0,0,0,0c0.7-1,1.3-1.9,2-2.8c5.7-7.5,12.1-12.3,18.3-11.7
					c0.4,0,0.9,0.1,1.3,0.2c0.5,0.1,1,0.2,1.4,0.4c0.5,0.2,1,0.4,1.4,0.6c4.2,2.2,7.9,5.1,11,8.5c0.3,0.3,0.6,0.7,0.9,1
					c0.3,0.3,0.6,0.7,0.9,1C347,148.7,350.7,159.7,350,168.4L350,168.4z"/>
				<path class="st0" d="M351,168.5c-0.2,2.3-0.3,4.9-0.4,7.7c-0.4,12.9-1,30.5-12,39c-12,9.2-24.6,12.5-27,13.1
					c-0.2,0.1-0.3,0.1-0.4,0.1c-0.1,0-0.1,0-0.2,0c-0.2,0-0.4-0.1-0.5-0.2l0,0c-0.2-0.1-0.4-0.4-0.4-0.6v0c-0.1-0.4,0.1-0.8,0.5-1
					c0.1-0.1,0.2-0.1,0.3-0.1c0,0,0,0,0.1,0c0,0,0,0,0,0c0.3-0.1,0.9-0.2,1.9-0.5c0.5-0.1,1-0.3,1.6-0.5c5-1.6,14.2-5.1,23-11.8
					c10.3-7.9,10.8-24.3,11.3-37.5c0.1-2.8,0.2-5.4,0.4-7.8c0.6-8.1-2.7-18.5-9.4-27c-0.3-0.4-0.6-0.7-0.9-1.1
					c-0.3-0.4-0.6-0.7-0.9-1c-3.1-3.5-6.9-6.6-11.3-8.9h0c-0.5-0.3-1.1-0.5-1.6-0.7c-0.5-0.1-0.9-0.3-1.4-0.4
					c-2.3-0.4-4.7,0-7.2,1.2c-3.6,1.7-7,4.9-10.2,8.9c-0.3,0.4-0.7,0.9-1,1.3h0l0,0c-0.6,0.9-1.3,1.8-1.9,2.8
					c-6.3,9.4-11.2,21.9-13.4,32.8c-0.1,0.6-0.2,1.1-0.3,1.7l0,0l0,0.2l-2.1,5.6l0,0.1l-0.3,0.7l0,0.1l-0.6,1.6
					c-0.1,0.2-0.2,0.4-0.4,0.5c-0.2,0.1-0.5,0.2-0.7,0.1c-0.1,0-0.1,0-0.2-0.1c-0.5-0.2-0.8-0.8-0.6-1.3l0.1-0.2l0.4-1l2.6-6.8v0
					c0.1-0.5,0.2-1.1,0.3-1.6c0.2-0.8,0.4-1.7,0.5-2.5c2.5-10.7,7.4-22.5,13.5-31.5c4.1-6.1,8.8-10.9,13.6-13.2
					c2.3-1.1,4.5-1.7,6.7-1.6c0.4,0,0.8,0,1.2,0.1c0.5,0.1,0.9,0.1,1.3,0.3c0.9,0.2,1.8,0.6,2.7,1.1c4,2.1,7.6,4.9,10.6,8.1
					c0.3,0.3,0.6,0.6,0.9,1c0.3,0.3,0.6,0.7,0.9,1C347.8,147.8,351.7,159.5,351,168.5L351,168.5z"/>
			</g>
			<g>
				<path d="M530,589.4l-1-0.1c2.9-40.1-38.4-127.5-76.5-147c-32.1-16.5-84.3-59-97.2-69.7c-0.5-0.4-0.9-0.8-1.3-1.1
					c-0.3-0.3-0.6-0.5-0.9-0.7c-0.1,0.1-0.2,0.2-0.3,0.4c-3.8,4.7-18.7,22-44.3,39c-30.8,20.6-88.7,31.2-106.6,31.2
					c-14.7,0-19.9-16.8-21.6-25.9c-0.1-0.7-0.2-1.4-0.4-2c-0.1-0.6-0.2-1.1-0.2-1.6c-0.1,0.1-0.3,0.3-0.4,0.4l0,0
					c-3.5,3.2-11.8,10.2-22.9,16.9c-14.9,8.9-93.8,43.6-97.1,45.1C16.3,496.4,6.2,530.8,2,590.4H1c4-57,13-94,58-117
					c0,0,82-36,97-45c12.7-7.6,21.5-15.6,23.9-17.9c0.4-0.4,0.7-0.6,0.7-0.6s0,0.5,0.2,1.4c0.1,0.6,0.2,1.4,0.3,2.2
					c1.3,8.1,6,26.8,20.9,26.8c19,0,76-11,106-31c26.4-17.6,41.2-35.2,44.4-39.2c0.4-0.5,0.6-0.8,0.6-0.8l0,0
					c0.1,0.1,0.8,0.6,1.8,1.5h0c10.7,8.9,64.9,53.4,98.1,70.4C490,460.4,533,547.4,530,589.4L530,589.4z"/>
				<path class="st0" d="M531,589.5l-2-0.1c2.9-40.1-38.4-127.5-76.5-147c-32.1-16.5-84.3-59-97.2-69.7c-0.5-0.4-0.9-0.8-1.3-1.1
					c-0.3-0.3-0.6-0.5-0.9-0.7c-0.1,0.1-0.2,0.2-0.3,0.4c-3.8,4.7-18.7,22-44.3,39c-30.8,20.6-88.7,31.2-106.6,31.2
					c-14.7,0-19.9-16.8-21.6-25.9c-0.1-0.7-0.2-1.4-0.4-2c-0.1-0.6-0.2-1.1-0.2-1.6c-0.1,0.1-0.3,0.3-0.4,0.4l0,0
					c-3.5,3.2-11.8,10.2-22.9,16.9c-14.9,8.9-93.8,43.6-97.1,45.1C16.3,496.4,6.2,530.8,2,590.4c0,0,0,0,0,0.1l-2-0.1
					c4.2-60.5,14.5-95.3,58.5-117.8c0.9-0.4,82.2-36.1,96.9-45c14.7-8.8,24.3-18.3,24.4-18.4l0.6-0.5l1-1l0.1,0.9l0.1,1.2
					c0,0,0.1,0.6,0.2,1.6c0.8,6.1,4.8,28,20.2,28c17.7,0,74.9-10.5,105.5-30.8c26.6-17.8,41.5-35.7,44.3-39.2
					c0.3-0.4,0.5-0.6,0.5-0.6l0.2-0.2l0.5-0.6l0.8,0.7c0,0,0,0,0.1,0v0c2.4,2,63.8,53.4,99.8,71.8c17.2,8.9,37.4,33.5,53.9,65.8
					C523.4,537.7,532.4,569.5,531,589.5L531,589.5z"/>
			</g>
			<g>
				<path class="st0" d="M302.4,535.3c9.7-16.6,15.8-35.5,18.4-56.6h-38.5c-7.6,18.5-17.9,33.8-30.9,45.8l-2.2-2.7
					c19-17.6,31.8-41.4,38.5-71.5l3.3,0.6c-2.1,8.7-4.6,16.8-7.4,24.4h40.6v2.9c-5.4,48.2-28.7,84.8-70.2,109.5l-2.1-2.9
					c21.1-12.5,37.4-28,49-46.7c-9.2-8.7-18.5-15.5-28-20.6l1.9-2.9C284.8,520.4,294,527.4,302.4,535.3z M349.5,450.5v49.6
					c13.8,10.3,27.9,22.3,42.3,36.1l-2.1,2.7c-15.7-15.1-29.2-26.8-40.2-35v89.2H346V450.5H349.5z"/>
				<path class="st0" d="M436.6,501.2v77.3c6.5-5.1,13.8-11.7,21.7-19.8l0.8,3.8c-8.2,8.7-17.1,16.5-26.6,23.1l-1.4-3
					c1.4-1.6,2.2-2.9,2.2-4v-74h-25.8v-3.5H436.6z M449.1,477.3l-2.5,2.4c-6.7-7.4-15.4-15.2-26-23.3l2.4-2.4
					C433.5,461.6,442.2,469.4,449.1,477.3z M545.8,458.4v3.3h-46.3l-5.2,25.2h39.6v32.6h16.3v3.5h-93.5v-3.5H484l6-29.2h-25V487
					h25.8l5.2-25.2h-34.7v-3.3H545.8z M538.8,593.6h-3.5v-9.5h-61.2v9.5h-3.5v-50.9h68.1V593.6z M535.3,580.6v-34.5h-61.2v34.5
					H535.3z M530.4,519.6v-29.2h-36.9l-6,29.2H530.4z"/>
			</g>
		</g>
	</g>
</g>
</svg>
